<?xml version="1.0" encoding="utf-8"?>
<!-- Generator: Adobe Illustrator 15.0.0, SVG Export Plug-In . SVG Version: 6.00 Build 0)  -->
<!DOCTYPE svg PUBLIC "-//W3C//DTD SVG 1.1//EN" "http://www.w3.org/Graphics/SVG/1.1/DTD/svg11.dtd">
<svg version="1.1" id="Ebene_1" xmlns="http://www.w3.org/2000/svg" xmlns:xlink="http://www.w3.org/1999/xlink" x="0px" y="0px"
	 width="99.21px" height="85.04px" viewBox="0 0 99.21 85.04" enable-background="new 0 0 99.21 85.04" xml:space="preserve">
<g>
	<linearGradient id="SVGID_1_" gradientUnits="userSpaceOnUse" x1="6.0879" y1="42.873" x2="93.4268" y2="42.873">
		<stop  offset="0" style="stop-color:#A8A8A8"/>
		<stop  offset="0.503" style="stop-color:#FFFFFF"/>
		<stop  offset="1" style="stop-color:#A8A8A8"/>
	</linearGradient>
	<path fill="url(#SVGID_1_)" d="M87.527,78.01c-0.84,0-1.622-0.246-2.264-0.712L61.422,59.994
		c-4.854,5.58-11.524,9.282-18.833,10.444c-1.651,0.262-3.33,0.395-4.988,0.395c-15.58,0-28.666-11.186-31.114-26.599
		c-1.322-8.321,0.676-16.659,5.625-23.478S24.369,9.454,32.69,8.132c1.651-0.262,3.329-0.396,4.987-0.396
		c15.58,0,28.666,11.187,31.116,26.6c0.856,5.397,0.295,10.93-1.622,16.026l24.654,17.896c1.995,1.449,2.147,4.655,0.338,7.147
		C90.998,77.012,89.222,78.01,87.527,78.01L87.527,78.01z M37.669,14.782c-1.289,0-2.592,0.104-3.875,0.307
		c-6.463,1.027-12.14,4.509-15.983,9.805c-3.844,5.296-5.396,11.772-4.369,18.236c1.902,11.971,12.065,20.66,24.166,20.66
		c1.288,0,2.592-0.104,3.874-0.308c13.341-2.12,22.471-14.698,20.352-28.04C59.933,23.471,49.77,14.782,37.669,14.782z"/>
	<path fill="#5F5E5E" d="M37.677,8.237c14.997,0,28.193,10.896,30.622,26.178c0.896,5.641,0.205,11.165-1.732,16.127l24.965,18.12
		c1.775,1.289,1.878,4.176,0.228,6.449c-1.114,1.536-2.744,2.398-4.231,2.398c-0.714,0-1.395-0.198-1.97-0.616L61.343,59.318
		c-4.636,5.49-11.181,9.41-18.833,10.626c-1.65,0.263-3.29,0.389-4.91,0.389c-14.998,0-28.192-10.895-30.621-26.177
		c-2.69-16.933,8.856-32.84,25.789-35.53C34.419,8.364,36.058,8.237,37.677,8.237 M37.608,64.289c1.304,0,2.625-0.103,3.953-0.313
		c13.637-2.167,22.934-14.977,20.768-28.612c-1.955-12.308-12.58-21.082-24.659-21.082c-1.304,0-2.625,0.103-3.954,0.313
		C20.08,16.761,10.782,29.571,12.949,43.208C14.904,55.516,25.53,64.289,37.608,64.289 M37.677,7.237
		c-1.685,0-3.389,0.135-5.065,0.401c-8.454,1.343-15.878,5.897-20.906,12.825C6.678,27.39,4.649,35.86,5.992,44.313
		c1.204,7.577,5.089,14.476,10.939,19.426c5.788,4.897,13.128,7.594,20.669,7.594c1.685,0,3.39-0.135,5.066-0.401
		c7.275-1.155,13.925-4.789,18.83-10.267l23.475,17.038c0.727,0.527,1.61,0.807,2.557,0.807c1.852,0,3.782-1.077,5.041-2.812
		c1.971-2.715,1.77-6.234-0.449-7.846L67.771,50.181c1.842-5.078,2.366-10.566,1.516-15.922
		c-1.204-7.578-5.089-14.477-10.939-19.427C52.559,9.934,45.218,7.237,37.677,7.237L37.677,7.237z M37.608,63.289
		c-11.853,0-21.809-8.512-23.671-20.238c-1.006-6.332,0.514-12.676,4.279-17.864s9.326-8.599,15.657-9.604
		c1.257-0.2,2.534-0.301,3.797-0.301c11.853,0,21.808,8.511,23.671,20.238c2.075,13.069-6.868,25.391-19.937,27.468
		C40.147,63.188,38.87,63.289,37.608,63.289L37.608,63.289z"/>
</g>
<circle opacity="0.6" fill="#5B82C2" cx="37.638" cy="39.285" r="31.044"/>
<radialGradient id="SVGID_2_" cx="27.2754" cy="48.9902" r="31.0439" gradientTransform="matrix(0.9876 -0.1569 0.1569 0.9876 3.0154 -4.8182)" gradientUnits="userSpaceOnUse">
	<stop  offset="0.8364" style="stop-color:#A8A8A8"/>
	<stop  offset="0.9212" style="stop-color:#D9D9D9"/>
	<stop  offset="1" style="stop-color:#A8A8A8"/>
</radialGradient>
<path fill="url(#SVGID_2_)" d="M32.769,8.626C15.835,11.316,4.29,27.224,6.979,44.156c2.69,16.933,18.597,28.479,35.53,25.788
	c16.932-2.69,28.479-18.597,25.788-35.529S49.701,5.936,32.769,8.626z M41.561,63.976c-13.636,2.166-26.445-7.132-28.612-20.768
	c-2.167-13.637,7.131-26.447,20.767-28.613c13.637-2.167,26.446,7.131,28.612,20.768C64.494,48.999,55.197,61.809,41.561,63.976z"/>
<linearGradient id="SVGID_3_" gradientUnits="userSpaceOnUse" x1="12.1641" y1="32.0381" x2="27.3868" y2="48.9446" gradientTransform="matrix(0.9876 -0.1569 0.1569 0.9876 3.0154 -4.8182)">
	<stop  offset="0" style="stop-color:#FFFFFF"/>
	<stop  offset="1" style="stop-color:#C1E3E3"/>
</linearGradient>
<path opacity="0.56" fill="url(#SVGID_3_)" d="M15.21,42.848c0.243,1.529,0.634,2.996,1.154,4.392
	c2.374,0.4,4.849,0.437,7.357,0.038c12.387-1.968,20.833-13.605,18.866-25.993c-0.243-1.527-0.634-2.995-1.154-4.391
	c-2.373-0.402-4.849-0.437-7.356-0.039C21.689,18.824,13.242,30.461,15.21,42.848z"/>
<linearGradient id="SVGID_4_" gradientUnits="userSpaceOnUse" x1="-49.4443" y1="99.8125" x2="-39.271" y2="99.8125" gradientTransform="matrix(0.5874 -0.8093 0.605 0.4391 42.3572 -15.5527)">
	<stop  offset="0" style="stop-color:#A8A8A8"/>
	<stop  offset="0.503" style="stop-color:#D9D9D9"/>
	<stop  offset="1" style="stop-color:#A8A8A8"/>
</linearGradient>
<path fill="url(#SVGID_4_)" d="M91.67,68.762c1.699,1.234,1.738,4.076,0.088,6.35l0,0c-1.649,2.273-4.364,3.116-6.064,1.883
	L61.709,59.585c-1.699-1.233-1.739-4.075-0.089-6.349l0,0c1.649-2.273,4.364-3.117,6.064-1.883L91.67,68.762z"/>
</svg>
